<svg width="38" height="37" viewBox="0 0 38 37" fill="none" xmlns="http://www.w3.org/2000/svg">
<g clip-path="url(#clip0_7734_104894)">
<path opacity="0.7" d="M31.6734 9.42146C32.134 6.54914 31.6734 4.58387 30.0871 2.80757C28.3473 0.854898 25.2002 0.0234375 21.1832 0.0234375H9.50324C8.68449 0.0234375 7.98088 0.615538 7.85295 1.4092L2.99163 31.7701C2.90208 32.3748 3.36262 32.9165 3.97668 32.9165H11.1791L10.6802 36.0282C10.5906 36.5573 11.0128 37.0234 11.5501 37.0234H17.6268C18.3432 37.0234 18.9572 36.5069 19.0724 35.814L19.1363 35.5117L20.2749 28.3687L20.3517 27.9782C20.4668 27.2727 21.0809 26.7688 21.7973 26.7688H22.7056C28.5903 26.7688 33.1958 24.413 34.5518 17.5975C35.1147 14.7504 34.8205 12.382 33.3365 10.7065C32.876 10.1774 32.3259 9.76162 31.6734 9.42146Z" fill="white"/>
<path opacity="0.7" d="M31.5682 9.452C32.0271 6.57035 31.5682 4.59869 29.9877 2.81662C28.2542 0.8576 25.1187 0.0234375 21.1165 0.0234375H9.47932C8.66358 0.0234375 7.96254 0.617462 7.83508 1.41371L2.99159 31.8733C2.90236 32.48 3.36122 33.0234 3.97303 33.0234H11.1491L12.959 21.6738L12.908 22.0277C13.0355 21.2314 13.7238 20.6374 14.5522 20.6374H17.9682C24.6726 20.6374 29.924 17.9327 31.4535 10.1219C31.4917 9.89439 31.53 9.67953 31.5682 9.452Z" fill="white"/>
<path d="M14.9091 9.48992C14.9856 9.00964 15.3043 8.61784 15.725 8.41562C15.9161 8.32715 16.1327 8.27659 16.3494 8.27659H25.4628C26.5462 8.27659 27.5532 8.35242 28.471 8.49145C28.7386 8.52937 28.9934 8.57992 29.2356 8.63048C29.4905 8.68103 29.7199 8.74423 29.9621 8.82006C30.0768 8.85798 30.1915 8.88326 30.3063 8.92117C30.7524 9.07284 31.1859 9.24978 31.5682 9.452C32.0271 6.57035 31.5681 4.59869 29.9876 2.81662C28.2541 0.8576 25.1186 0.0234375 21.1164 0.0234375H9.47929C8.66355 0.0234375 7.96252 0.617462 7.83506 1.41371L2.99158 31.8733C2.90236 32.48 3.36134 33.0234 3.97315 33.0234H11.1491L12.9591 21.6738L14.9091 9.48992Z" fill="white"/>
</g>
<defs>
<clipPath id="clip0_7734_104894">
<rect width="38" height="37" fill="white"/>
</clipPath>
</defs>
</svg>
